#!OML:ASF E:/inclinewalkrobotboard/Project1/Captureday1/Session1/subject1.ASF
:FULLY-SPECIFIED
:DEGREES
113
root 0 0 0 -1.7449662295761188 -5.368299654653061 -7.351571904209561
lowerback 10.102549845140372 2.4623402010623012 5.678753958584287
upperback 0.05872529902089513 4.019606360225495 1.463373210718825
thorax -5.52380521314055 1.8513828647135586 -2.2283542334674893
lowerneck -14.811013408905099 -3.339421385402555 -0.9686262138189708
upperneck 17.44536510849866 -4.5851195862211735 1.3317928636802234
head 8.022753785358118 -2.138241867812379 0.09309701617146987
rclavicle -1.4705178393581389E-16 -4.678370651759194E-17
rhumerus -19.050334493870693 -6.652055294765596 -66.75555262254409
rradius 62.55325554181522
rwrist -8.834070571430821
rhand -13.09695919401208 -10.751560727791931
rfingers 7.125019999999853
rthumb 13.028387622191577 -39.95528352211079
lclavicle -8.603794285322896E-16 -3.870426411736536E-16
lhumerus -40.07631851383017 0.2982297911368789 83.32575580530889
lradius 38.82951325611825
lwrist 2.5052975823880126
lhand -18.979648448790982 -0.5278396066093585
lfingers 7.12501999999987
lthumb 7.217577925836664 28.955555617694873
rfemur -4.345633996822361 3.545973079820145 17.445847759970952
rtibia 22.937822675143543
rfoot -5.600864204046388 -3.1443714150721096
rtoes 2.142701456149397
lfemur -15.916006616014421 -1.786897982322838 -12.730956341311
ltibia 36.986296049969596
lfoot -9.146521729066881 1.2188138622740494
ltoes -20.634365949778314
114
root 0 0 0 -1.7260385780758876 -5.354473004493515 -7.341541904436019
lowerback 10.097301086395426 2.4667087047575245 5.649645102101908
upperback 0.05043309684946262 4.022739553423785 1.4484154050884133
thorax -5.529418793286564 1.852123665750212 -2.2280913127997284
lowerneck -14.734639149232004 -3.335511399388996 -0.9480524706858778
upperneck 17.35495580097392 -4.5868917445225925 1.3521005035563336
head 7.988016354615489 -2.137011988584001 0.09894486970480088
rclavicle -1.514713689444345E-16 -4.6934371433668174E-17
rhumerus -19.14448352017808 -6.738816397377184 -66.85363388165891
rradius 62.26996765133275
rwrist -8.72819596317214
rhand -13.132571504782657 -10.501100330251992
rfingers 7.1250199999998545
rthumb 12.994339434409179 -39.710722016648596
lclavicle -8.712007381784476E-16 -4.00338828387105E-16
lhumerus -40.27375061649487 0.3169879740402634 83.3459507991185
lradius 39.08033327759232
lwrist 2.415892432036805
lhand -18.775464144644094 -1.1506431198148093
lfingers 7.125019999999865
lthumb 7.411487507118097 28.326055897457074
rfemur -4.49018049952157 3.0437960949180822 16.223160843888177
rtibia 23.86463944424748
rfoot -4.036555462426304 -2.742523665727295
rtoes 2.73463105373241
lfemur -15.034044421359251 -1.9800927721678734 -12.962685917742723
ltibia 35.71161126963595
lfoot -9.964954670268993 1.7147624317195618
ltoes -21.56344903231468
115
root 0 0 0 -1.7126339268009159 -5.332512617987284 -7.314694142830087
lowerback 10.094042857874982 2.4630408258145815 5.607653970951344
upperback 0.04414662869042857 4.01340873492038 1.4365093411661665
thorax -5.53412683974771 1.8473712131918907 -2.2159674712389155
lowerneck -14.677149888583191 -3.3312621456245886 -0.9343137236388073
upperneck 17.28463283131489 -4.585975298986532 1.3672672149131448
head 7.962147932351495 -2.1351098577496215 0.10394351522000239
rclavicle -1.5844569629100208E-16 -5.1212001236745394E-17
rhumerus -19.262053000812884 -6.857149024764797 -66.97664589108929
rradius 61.89729058455655
rwrist -8.5905847895026
rhand -13.180344060428476 -10.16153112971
rfingers 7.125019999999856
rthumb 12.948097301810602 -39.37758772540861
lclavicle -8.789554365158687E-16 -4.0833923054928043E-16
lhumerus -40.40728926698122 0.3273456728969627 83.35921881395821
lradius 39.25528501677379
lwrist 2.3560516119290074
lhand -18.635774114658094 -1.5769618373810559
lfingers 7.1250199999998625
lthumb 7.54390719271647 27.895730491076023
rfemur -5.0515469226448335 2.626202990730496 15.408156904145592
rtibia 25.31636767100728
rfoot -2.688703895880899 -2.524237505699996
rtoes 3.3331448612905095
lfemur -14.283455811259824 -2.1151766245866748 -13.223182368119625
ltibia 34.78381492035425
lfoot -10.52618908405255 2.0051835685741324
ltoes -22.053983666683024
116
root 0 0 0 -1.7011407368464808 -5.309148456319798 -7.284399800400626
lowerback 10.091356505438055 2.4576131204410587 5.563881933750256
upperback 0.038500355539065445 4.0015238884196 1.4256551826355195
thorax -5.538789657740758 1.841557910180554 -2.2014878261177593
lowerneck -14.626703127009142 -3.327263107056099 -0.9228532171619315
upperneck 17.221082248942487 -4.584687127826927 1.3808899882933678
head 7.939163448647143 -2.133272342331467 0.10862657092498651
rclavicle -1.645026087279875E-16 -5.690521300346091E-17
rhumerus -19.364501018678133 -6.964338201404147 -67.08710595842165
rradius 61.56119898868557
rwrist -8.467989230000743
rhand -13.22406088718449 -9.85277392158841
rfingers 7.125019999999858
rthumb 12.90563324981636 -39.07461904917547
lclavicle -8.808660392140549E-16 -4.122121393067085E-16
lhumerus -40.47578581175884 0.3298236488278097 83.36599152741249
lradius 39.35163051463269
lwrist 2.3260971561743267
lhand -18.562528041337217 -1.802108284496665
lfingers 7.125019999999861
lthumb 7.613677179052711 27.668375840470446
rfemur -5.682365247274832 2.400561313223035 15.064422539909085
rtibia 26.455339698647656
rfoot -1.9574923161253466 -2.4991780693272014
rtoes 3.686301650254034
lfemur -13.581320359101936 -2.2307918337702093 -13.488870699644531
ltibia 33.97206696862779
lfoot -11.004531615164256 2.2303383046605045
ltoes -22.40613074647719
117
root 0 0 0 -1.6812920980816237 -5.271182053164241 -7.237940220371929
lowerback 10.086335666471069 2.448595928544642 5.49557494251808
upperback 0.02896541367622707 3.9817679900974534 1.4091009409151583
thorax -5.547116243515116 1.8320909601525086 -2.1787583055533837
lowerneck -14.547278273836081 -3.3207417786352127 -0.9039556865356182
upperneck 17.117014752446458 -4.582248769476801 1.402972844042434
head 7.902574468291675 -2.1301840618591217 0.11603786751243472
rclavicle -1.703431795229607E-16 -6.309340927905744E-17
rhumerus -19.44300460856667 -7.05051351474951 -67.17675354668252
rradius 61.2861399020323
rwrist -8.371016119857254
rhand -13.26074875397671 -9.59780422508383
rfingers 7.12501999999986
rthumb 12.870306670550542 -38.82297215769684
lclavicle -8.730637501603698E-16 -4.098039280577398E-16
lhumerus -40.48652900066489 0.3191397451649485 83.36725833721052
lradius 39.39180438578764
lwrist 2.3239786662906425
lhand -18.543952816079038 -1.8628137344167612
lfingers 7.12501999999986
lthumb 7.631778693579268 27.60576825287206
rfemur -6.166171804016843 2.4470733181221815 15.150105881487278
rtibia 26.3821402026189
rfoot -2.2156364859621878 -2.70357890204435
rtoes 3.492604370141386
lfemur -12.29337855759709 -2.4546853168533094 -13.947169427982221
ltibia 32.4229361592551
lfoot -11.941365578581788 2.696484684717807
ltoes -23.1905034097703
